<svg xmlns="http://www.w3.org/2000/svg" width="32" height="32" viewBox="0 0 32 32" fill="none">
  <defs>
    <linearGradient id="grad" x1="0%" y1="0%" x2="100%" y2="100%">
      <stop offset="0%" style="stop-color:#06b6d4"/>
      <stop offset="100%" style="stop-color:#a855f7"/>
    </linearGradient>
  </defs>
  
  <!-- Background -->
  <rect width="32" height="32" rx="6" fill="url(#grad)"/>
  
  <!-- Chat bubble -->
  <path d="M8 10 C8 8.5 9 7 11 7 L21 7 C23 7 24 8.5 24 10 L24 18 C24 19.5 23 21 21 21 L14 21 L10 25 L10 21 L11 21 C9 21 8 19.5 8 18 Z" 
        fill="white" opacity="0.95"/>
  
  <!-- Video camera -->
  <g transform="translate(11, 11)">
    <rect width="6" height="5" rx="1" fill="url(#grad)"/>
    <path d="M6.5 11.5 L9 10 L9 16 L6.5 14.5 Z" fill="url(#grad)" opacity="0.8"/>
  </g>
  
  <!-- Record dot -->
  <circle cx="20" cy="12" r="1.5" fill="#ef4444"/>
</svg>
